<svg xmlns="http://www.w3.org/2000/svg" width="1024" height="1024" viewBox="0 0 1024 1024"><rect width="1024" height="1024" fill="#6c9e86"/><svg x="257" y="206" width="510" height="612" viewBox="0 0 40 48"><path fill="#e1f38b" fill-rule="evenodd" d="M11 3h26l-4 20-7 6-6-6 4-6 5 .5 2 4-1-6-5-3-8-.5L11 3Zm10 3.5c-2.1 0-4 1.7-4 3.4s1.4 2.2 3.5 1.3 3.4-2.6 3.1-3.8c-.2-.6-1.2-.9-2.6-.9ZM10 7 3 45h7l-.4-10 5-8 1-8-4-4L10 7Zm7 24 8 4 8-7-5 17H12l1-11 4-3Zm5 7c-1.7.2-3.8 1.8-3.8 3.2s1.4 1.8 3.2 1.1 3.4-2.4 3-3.4c-.2-.7-1.1-1-2.4-.9Z"/></svg></svg>